<svg width="27" height="27" viewBox="0 0 27 27" fill="none" xmlns="http://www.w3.org/2000/svg">
<g clip-path="url(#clip0_46_1500)">
<path d="M5.445 17.7975C4.70184 17.7975 3.97536 18.0179 3.35745 18.4308C2.73953 18.8436 2.25792 19.4305 1.97352 20.1171C1.68913 20.8037 1.61472 21.5592 1.7597 22.2881C1.90468 23.0169 2.26255 23.6865 2.78805 24.212C3.31354 24.7374 3.98307 25.0953 4.71195 25.2403C5.44083 25.3853 6.19634 25.3109 6.88293 25.0265C7.56953 24.7421 8.15637 24.2605 8.56925 23.6426C8.98213 23.0246 9.2025 22.2982 9.2025 21.555" stroke="white" stroke-width="2" stroke-miterlimit="10"/>
<path d="M9.2025 5.44501C9.2025 4.70185 8.98213 3.97538 8.56925 3.35746C8.15637 2.73954 7.56953 2.25793 6.88293 1.97354C6.19634 1.68914 5.44083 1.61473 4.71195 1.75971C3.98307 1.9047 3.31354 2.26257 2.78805 2.78806C2.26255 3.31356 1.90468 3.98308 1.7597 4.71196C1.61472 5.44085 1.68913 6.19635 1.97352 6.88295C2.25792 7.56954 2.73953 8.15638 3.35745 8.56926C3.97536 8.98214 4.70184 9.20251 5.445 9.20251" stroke="white" stroke-width="2" stroke-miterlimit="10"/>
<path d="M17.7975 21.555C17.7975 22.2982 18.0179 23.0246 18.4307 23.6426C18.8436 24.2605 19.4305 24.7421 20.1171 25.0265C20.8036 25.3109 21.5592 25.3853 22.288 25.2403C23.0169 25.0953 23.6864 24.7374 24.2119 24.212C24.7374 23.6865 25.0953 23.0169 25.2403 22.2881C25.3853 21.5592 25.3109 20.8037 25.0265 20.1171C24.7421 19.4305 24.2605 18.8436 23.6425 18.4308C23.0246 18.0179 22.2981 17.7975 21.555 17.7975" stroke="white" stroke-width="2" stroke-miterlimit="10"/>
<path d="M21.555 9.20251C22.2981 9.20251 23.0246 8.98214 23.6425 8.56926C24.2605 8.15638 24.7421 7.56954 25.0265 6.88295C25.3109 6.19635 25.3853 5.44085 25.2403 4.71196C25.0953 3.98308 24.7374 3.31356 24.2119 2.78806C23.6864 2.26257 23.0169 1.9047 22.288 1.75971C21.5592 1.61473 20.8036 1.68914 20.1171 1.97354C19.4305 2.25793 18.8436 2.73954 18.4307 3.35746C18.0179 3.97538 17.7975 4.70185 17.7975 5.44501" stroke="white" stroke-width="2" stroke-miterlimit="10"/>
<path d="M22.095 4.90497L16.7175 10.2825" stroke="white" stroke-width="2" stroke-miterlimit="10"/>
<path d="M10.2825 16.7175L4.90503 22.095" stroke="white" stroke-width="2" stroke-miterlimit="10"/>
<path d="M10.2825 10.2825L4.90503 4.90497" stroke="white" stroke-width="2" stroke-miterlimit="10"/>
<path d="M22.095 22.095L16.7175 16.7175" stroke="white" stroke-width="2" stroke-miterlimit="10"/>
<path d="M16.7175 16.7175V10.2825C16.7175 9.85997 16.6342 9.44158 16.4726 9.05121C16.3109 8.66085 16.0739 8.30615 15.7751 8.00738C15.4763 7.70861 15.1216 7.47161 14.7313 7.30991C14.3409 7.14822 13.9225 7.065 13.5 7.065C13.0774 7.065 12.6591 7.14822 12.2687 7.30991C11.8783 7.47161 11.5236 7.70861 11.2249 8.00738C10.9261 8.30615 10.6891 8.66085 10.5274 9.05121C10.3657 9.44158 10.2825 9.85997 10.2825 10.2825V16.7175C10.2825 17.14 10.3657 17.5584 10.5274 17.9488C10.6891 18.3391 10.9261 18.6938 11.2249 18.9926C11.5236 19.2914 11.8783 19.5284 12.2687 19.6901C12.6591 19.8518 13.0774 19.935 13.5 19.935C13.9225 19.935 14.3409 19.8518 14.7313 19.6901C15.1216 19.5284 15.4763 19.2914 15.7751 18.9926C16.0739 18.6938 16.3109 18.3391 16.4726 17.9488C16.6342 17.5584 16.7175 17.14 16.7175 16.7175Z" stroke="white" stroke-width="2" stroke-miterlimit="10"/>
</g>
<defs>
<clipPath id="clip0_46_1500">
<rect width="27" height="27" fill="white" transform="matrix(1 0 0 -1 0 27)"/>
</clipPath>
</defs>
</svg>
