<svg width="10" height="10" viewBox="0 0 10 10" fill="none" xmlns="http://www.w3.org/2000/svg">
<mask id="mask0_261_1720" style="mask-type:alpha" maskUnits="userSpaceOnUse" x="0" y="0" width="10" height="10">
<path d="M5.62516 0.833313C5.62516 0.488135 5.34534 0.208313 5.00016 0.208313C4.65499 0.208313 4.37516 0.488135 4.37516 0.833313V4.37498H0.833496C0.488318 4.37498 0.208496 4.6548 0.208496 4.99998C0.208496 5.34516 0.488318 5.62498 0.833496 5.62498H4.37516V9.16665C4.37516 9.51183 4.65499 9.79165 5.00016 9.79165C5.34534 9.79165 5.62516 9.51183 5.62516 9.16665V5.62498H9.16683C9.51201 5.62498 9.79183 5.34516 9.79183 4.99998C9.79183 4.6548 9.51201 4.37498 9.16683 4.37498H5.62516V0.833313Z" fill="#006FFD"/>
</mask>
<g mask="url(#mask0_261_1720)">
<rect width="10" height="10" fill="#006FFD"/>
</g>
</svg>
