<svg width="13" height="8" viewBox="0 0 13 8" fill="none" xmlns="http://www.w3.org/2000/svg">
<path d="M0.866943 1.26637C0.866943 1.57668 0.968506 1.82628 1.17163 2.04215L5.83081 7.12181C6.10376 7.41188 6.37036 7.54005 6.70679 7.5468C7.03687 7.5468 7.31616 7.41188 7.58276 7.12181L12.2483 2.04889C12.4451 1.82628 12.5466 1.56993 12.5466 1.26637C12.5466 0.645745 12.0769 0.133057 11.4929 0.133057C11.2009 0.133057 10.9343 0.267975 10.7122 0.497335L6.70044 4.90241L2.70142 0.497335C2.47925 0.261229 2.21265 0.133057 1.92065 0.133057C1.34302 0.133057 0.866943 0.645745 0.866943 1.26637Z" fill="black"/>
</svg>
