<svg width="8" height="12" viewBox="0 0 8 12" fill="none" xmlns="http://www.w3.org/2000/svg">
<path d="M1.13331 11.6797C1.44362 11.6797 1.69322 11.5781 1.90909 11.375L6.98875 6.71582C7.27882 6.44287 7.40699 6.17627 7.41374 5.83984C7.41374 5.50977 7.27882 5.23047 6.98875 4.96387L1.91583 0.29834C1.69322 0.101562 1.43688 0 1.13331 0C0.512688 0 0 0.469727 0 1.05371C0 1.3457 0.134918 1.6123 0.364278 1.83447L4.76935 5.84619L0.364278 9.84521C0.128172 10.0674 0 10.334 0 10.626C0 11.2036 0.512688 11.6797 1.13331 11.6797Z" fill="#ABABAB"/>
</svg>
