<svg width="61" height="61" viewBox="0 0 61 61" fill="none" xmlns="http://www.w3.org/2000/svg">
<g filter="url(#filter0_d_87_2115)">
<rect y="35.1372" width="43" height="43" rx="20" transform="rotate(-53.6602 0 35.1372)" fill="white" shape-rendering="crispEdges"/>
<g clip-path="url(#clip0_87_2115)">
<path d="M28.7473 39.5938C28.307 40.1924 28.054 40.9082 28.0204 41.6506C27.9868 42.393 28.1742 43.1287 28.5587 43.7647C28.9432 44.4006 29.5077 44.9082 30.1808 45.2234C30.8538 45.5385 31.6052 45.647 32.3399 45.5351C33.0746 45.4232 33.7596 45.0959 34.3083 44.5947C34.857 44.0935 35.2447 43.4408 35.4225 42.7192C35.6003 41.9976 35.5601 41.2395 35.307 40.5408C35.0539 39.8421 34.5993 39.2341 34.0007 38.7937" stroke="#386BF6" stroke-width="2" stroke-miterlimit="10"/>
<path d="M21.0236 29.2475C20.425 28.8072 19.7092 28.5542 18.9668 28.5206C18.2244 28.487 17.4887 28.6743 16.8528 29.0589C16.2168 29.4434 15.7092 30.0079 15.3941 30.6809C15.0789 31.354 14.9705 32.1054 15.0824 32.8401C15.1943 33.5747 15.5215 34.2597 16.0227 34.8085C16.5239 35.3572 17.1766 35.7449 17.8982 35.9227C18.6198 36.1004 19.3779 36.0603 20.0766 35.8072C20.7754 35.5541 21.3834 35.0995 21.8238 34.5009" stroke="#386BF6" stroke-width="2" stroke-miterlimit="10"/>
<path d="M39.0939 31.8703C39.6925 32.3107 40.4083 32.5637 41.1507 32.5973C41.8931 32.6308 42.6288 32.4435 43.2647 32.059C43.9007 31.6744 44.4083 31.11 44.7234 30.4369C45.0386 29.7639 45.147 29.0125 45.0351 28.2778C44.9232 27.5431 44.596 26.8581 44.0948 26.3094C43.5935 25.7607 42.9409 25.373 42.2193 25.1952C41.4977 25.0174 40.7396 25.0576 40.0409 25.3107C39.3421 25.5638 38.7341 26.0184 38.2937 26.617" stroke="#386BF6" stroke-width="2" stroke-miterlimit="10"/>
<path d="M31.3701 21.5238C31.8105 20.9252 32.0635 20.2094 32.0971 19.467C32.1307 18.7246 31.9433 17.9889 31.5588 17.353C31.1743 16.717 30.6098 16.2094 29.9367 15.8943C29.2637 15.5791 28.5123 15.4707 27.7776 15.5826C27.0429 15.6945 26.3579 16.0217 25.8092 16.5229C25.2605 17.0241 24.8728 17.6768 24.695 18.3984C24.5172 19.12 24.5574 19.8781 24.8105 20.5768C25.0636 21.2756 25.5182 21.8836 26.1168 22.3239" stroke="#386BF6" stroke-width="2" stroke-miterlimit="10"/>
<path d="M28.2284 18.5423L29.3735 26.0605" stroke="#386BF6" stroke-width="2" stroke-miterlimit="10"/>
<path d="M30.744 35.0572L31.8892 42.5754" stroke="#386BF6" stroke-width="2" stroke-miterlimit="10"/>
<path d="M25.5606 31.244L18.0424 32.3891" stroke="#386BF6" stroke-width="2" stroke-miterlimit="10"/>
<path d="M42.0752 28.7286L34.557 29.8737" stroke="#386BF6" stroke-width="2" stroke-miterlimit="10"/>
<path d="M34.5574 29.8738L29.3739 26.0606C29.0335 25.8102 28.6472 25.6293 28.2369 25.5282C27.8267 25.4271 27.4005 25.4079 26.9828 25.4715C26.5651 25.5351 26.164 25.6804 25.8024 25.899C25.4409 26.1177 25.1259 26.4054 24.8755 26.7457C24.6252 27.0861 24.4443 27.4724 24.3432 27.8827C24.2421 28.2929 24.2228 28.7191 24.2865 29.1368C24.3501 29.5545 24.4954 29.9556 24.714 30.3172C24.9326 30.6787 25.2203 30.9937 25.5607 31.2441L30.7442 35.0573C31.0845 35.3076 31.4709 35.4885 31.8811 35.5896C32.2914 35.6907 32.7176 35.71 33.1353 35.6463C33.553 35.5827 33.9541 35.4374 34.3156 35.2188C34.6772 35.0002 34.9922 34.7125 35.2425 34.3721C35.4929 34.0318 35.6738 33.6454 35.7749 33.2352C35.8759 32.8249 35.8952 32.3988 35.8316 31.981C35.768 31.5633 35.6227 31.1622 35.4041 30.8007C35.1854 30.4391 34.8977 30.1241 34.5574 29.8738Z" fill="#386BF6" stroke="#386BF6" stroke-width="2" stroke-miterlimit="10"/>
</g>
</g>
<defs>
<filter id="filter0_d_87_2115" x="-4" y="0.5" width="68.1177" height="68.1179" filterUnits="userSpaceOnUse" color-interpolation-filters="sRGB">
<feFlood flood-opacity="0" result="BackgroundImageFix"/>
<feColorMatrix in="SourceAlpha" type="matrix" values="0 0 0 0 0 0 0 0 0 0 0 0 0 0 0 0 0 0 127 0" result="hardAlpha"/>
<feOffset dy="4"/>
<feGaussianBlur stdDeviation="2"/>
<feComposite in2="hardAlpha" operator="out"/>
<feColorMatrix type="matrix" values="0 0 0 0 0.721569 0 0 0 0 0.721569 0 0 0 0 0.721569 0 0 0 0.25 0"/>
<feBlend mode="normal" in2="BackgroundImageFix" result="effect1_dropShadow_87_2115"/>
<feBlend mode="normal" in="SourceGraphic" in2="effect1_dropShadow_87_2115" result="shape"/>
</filter>
<clipPath id="clip0_87_2115">
<rect width="27" height="27" fill="white" transform="matrix(0.592572 -0.805517 -0.805517 -0.592572 32.9336 49.4331)"/>
</clipPath>
</defs>
</svg>
