<svg width="18" height="18" viewBox="0 0 18 18" fill="none" xmlns="http://www.w3.org/2000/svg">
<mask id="mask0_154_2358" style="mask-type:luminance" maskUnits="userSpaceOnUse" x="0" y="1" width="18" height="16">
<path d="M17.9745 1.08228H0.0883789V16.9177H17.9745V1.08228Z" fill="white"/>
</mask>
<g mask="url(#mask0_154_2358)">
<path d="M0.911929 11.693C1.39322 12.1382 2.01107 12.3791 2.80088 12.4293C3.21649 12.4557 3.63908 12.452 4.04816 12.4488C4.22962 12.4474 4.41107 12.4462 4.59253 12.447C4.65228 12.4474 4.71194 12.447 4.76738 12.447H4.78601L4.78839 12.4524C4.79262 12.4619 4.79625 12.4688 4.79752 12.4685C4.78267 12.8123 4.76768 13.1562 4.75254 13.5002C4.72367 14.1552 4.69377 14.8326 4.66824 15.4991C4.66384 15.7163 4.67343 15.9337 4.69694 16.1498C4.70584 16.2462 4.74188 16.3382 4.8009 16.4151C4.85992 16.492 4.93952 16.5507 5.03055 16.5845C5.49407 16.7814 5.99398 16.8788 6.49773 16.8704C6.68026 16.8699 6.86265 16.8602 7.04419 16.8412C7.3654 16.8085 7.44043 16.6585 7.47249 16.375C7.59572 15.2499 7.59705 14.1148 7.47663 12.9893C7.4612 12.8413 7.45015 12.693 7.43723 12.5216C7.43404 12.4782 7.43063 12.4334 7.42707 12.3871C7.5172 12.4364 7.6044 12.4842 7.68878 12.5304C7.93659 12.666 8.17059 12.7941 8.39806 12.9243C8.97495 13.2544 9.55628 13.6001 10.1185 13.9341C11.3133 14.6444 12.549 15.3783 13.8169 16.0114C13.8993 16.0524 13.981 16.0956 14.0624 16.1385C14.4792 16.3589 14.9101 16.5861 15.4502 16.5462C15.8288 16.5177 15.9938 16.4601 15.9827 16.0288C15.9794 15.9019 15.9725 15.7733 15.9659 15.649C15.9553 15.4511 15.9446 15.2466 15.948 15.0469C15.9703 13.7743 16.0017 12.5306 16.0296 11.4822C16.0344 11.3046 16.0506 11.1245 16.0662 10.9502C16.0716 10.8897 16.0771 10.8296 16.082 10.7696C16.5427 10.7118 16.9714 10.5043 17.302 10.1794C17.6327 9.85435 17.8468 9.4299 17.9114 8.97141C17.9945 8.38183 17.9302 7.92068 17.7092 7.52109C17.3443 6.8606 16.6911 6.58496 16.0957 6.38486V6.32375C16.0957 6.24391 16.0964 6.16724 16.0951 6.09043C16.0885 5.65917 16.0813 5.22788 16.0739 4.79653C16.0564 3.76619 16.0384 2.70077 16.0298 1.65304C16.0274 1.37592 15.9159 1.23866 15.8226 1.17206C15.6826 1.07224 15.4788 1.05603 15.2635 1.12766C15.1803 1.15837 15.1006 1.19762 15.0256 1.24479C14.9996 1.25996 14.9736 1.27514 14.9476 1.2892C14.8723 1.33042 14.7974 1.37266 14.7227 1.41499C14.5905 1.48965 14.4539 1.56684 14.3171 1.6361C13.9157 1.8388 13.5134 2.03969 13.1101 2.23879C12.2998 2.64104 11.4621 3.05692 10.6503 3.48988C9.69395 4.00009 8.69664 4.57764 7.68619 5.20662C7.64507 5.23215 7.60455 5.25841 7.56462 5.28373C7.24435 5.48906 6.96782 5.66665 6.58234 5.5291C6.53387 5.51514 6.48298 5.51153 6.43301 5.5185C6.42247 5.51932 6.41195 5.52014 6.40156 5.52059C6.23085 5.5285 6.06016 5.5345 5.88901 5.54042C5.49493 5.55426 5.08748 5.56854 4.68775 5.60701C3.79322 5.69344 3.12321 5.83233 2.51508 6.0572C1.61803 6.38894 1.03692 6.84247 0.68632 7.48455C0.271635 8.21915 0.0870412 9.06073 0.156335 9.9009C0.205095 10.4545 0.33453 11.1584 0.911929 11.693ZM6.49254 12.2636V15.9944H5.71326L5.60937 12.4305L6.49254 12.2636ZM1.60385 7.67028C1.88053 7.228 2.33859 6.9027 2.92801 6.72947C3.42105 6.5801 3.92466 6.46799 4.4346 6.39411C4.9573 6.3227 5.47682 6.27891 6.02684 6.23252C6.23516 6.21498 6.44549 6.19723 6.65878 6.17769L6.58316 11.2807L6.51473 11.2906C6.41749 11.3069 6.31935 11.3172 6.22084 11.3216C5.86312 11.3296 5.5005 11.3537 5.14975 11.3771C4.38265 11.428 3.58943 11.4807 2.81127 11.3663L2.79421 11.3639C2.64109 11.3417 2.4825 11.3182 2.33228 11.2815C1.69811 11.1272 1.32153 10.7487 1.18082 10.124C1.08197 9.70769 1.06852 9.27576 1.14126 8.85405C1.21401 8.43243 1.37146 8.02976 1.60415 7.67028H1.60385ZM7.66578 6.16156C8.53336 5.55241 14.1614 2.72675 15.1942 2.37526C15.2524 5.33286 15.2091 8.3421 15.1678 11.2533C15.1483 12.607 15.1284 14.0054 15.1184 15.3906C14.1707 14.8956 13.2362 14.3683 12.3314 13.8574C10.8165 13.0024 9.25066 12.1185 7.63194 11.3963C7.72456 9.35887 7.73532 7.69279 7.66608 6.16156H7.66578ZM16.1087 9.68378V7.21299C16.6537 7.37386 17.008 7.91454 16.9801 8.56213C16.9563 9.11889 16.5954 9.57634 16.109 9.68364L16.1087 9.68378Z" fill="#006FFD"/>
</g>
</svg>
