<svg width="146" height="146" viewBox="0 0 146 146" fill="none" xmlns="http://www.w3.org/2000/svg">
<circle cx="73" cy="73" r="71.5" fill="#E42525" stroke="#E42525" stroke-width="3"/>
<path d="M102.954 38.7452C104.329 37.4003 106.532 37.4172 107.887 38.7827L109.658 40.5696C111.026 41.9488 111.009 44.178 109.62 45.5363L82.5403 72.0226C81.5484 72.9927 81.5363 74.5852 82.5134 75.5703L109.188 102.465C110.556 103.845 110.539 106.074 109.15 107.432L107.351 109.192C105.976 110.536 103.773 110.52 102.419 109.154L75.6854 82.1993C74.7179 81.2239 73.1443 81.2118 72.1621 82.1725L45.022 108.718C43.6469 110.062 41.4439 110.046 40.0895 108.68L38.3179 106.893C36.9502 105.514 36.9671 103.285 38.3556 101.927L65.4367 75.4405C66.4284 74.4704 66.4405 72.8779 65.4637 71.8927L38.7885 44.9977C37.4207 43.6186 37.4378 41.3894 38.8262 40.0311L40.6248 38.2713C41.9998 36.9264 44.2028 36.9434 45.5573 38.3088L72.2906 65.2638C73.2581 66.2392 74.8317 66.2511 75.814 65.2906L102.954 38.7452Z" fill="white" stroke="white"/>
</svg>
