<svg width="147" height="147" viewBox="0 0 147 147" fill="none" xmlns="http://www.w3.org/2000/svg">
<path d="M72.9042 3.19469C111.505 3.09167 142.883 34.3179 142.987 72.9441C143.09 111.57 111.879 142.964 73.2783 143.067C34.6775 143.17 3.29834 111.944 3.19504 73.3179C3.09179 34.6916 34.3034 3.29792 72.9042 3.19469Z" fill="#4BDF63" stroke="#4BDF63" stroke-width="6"/>
<path d="M108.6 42.2636C109.988 40.6972 112.432 40.6906 113.828 42.2496L116.416 45.1392C117.601 46.4628 117.606 48.4645 116.428 49.7945L61.3247 111.992C59.9369 113.558 57.4942 113.565 56.0981 112.006L33.421 86.6836C32.2355 85.3598 32.2301 83.3574 33.4085 82.0273L35.9808 79.124C37.3686 77.5577 39.8113 77.551 41.2074 79.11L56.8028 96.5244C57.8001 97.638 59.5459 97.6333 60.5372 96.5144L108.6 42.2636Z" fill="white" stroke="#4BDF63"/>
</svg>
