<svg width="22" height="22" viewBox="0 0 22 22" fill="none" xmlns="http://www.w3.org/2000/svg">
<path d="M17.6667 1C19.5077 1 21 2.49238 21 4.33333V6.71428C21 7.08553 21 7.27116 20.9149 7.40668C20.8704 7.47735 20.8107 7.5371 20.74 7.5815C20.6044 7.66666 20.4189 7.66666 20.0477 7.66666H14.3333M17.6667 1C15.8257 1 14.3333 2.49238 14.3333 4.33333V7.66666M17.6667 1H5.44444C3.34931 1 2.30174 1 1.65088 1.65087C1 2.30174 1 3.34931 1 5.44445V21L4.33333 19.8889L7.66667 21L11 19.8889L14.3333 21V7.66666" stroke="#006FFD"/>
<path d="M5.44482 5.44443H9.88927" stroke="#006FFD" stroke-linecap="round"/>
<path d="M6.55594 9.88889H5.44482" stroke="#006FFD" stroke-linecap="round"/>
<path d="M5.44482 14.3333H8.77816" stroke="#006FFD" stroke-linecap="round"/>
</svg>
