<svg width="20" height="20" viewBox="0 0 20 20" fill="none" xmlns="http://www.w3.org/2000/svg">
<mask id="mask0_377_2382" style="mask-type:alpha" maskUnits="userSpaceOnUse" x="0" y="0" width="20" height="20">
<path fill-rule="evenodd" clip-rule="evenodd" d="M8.03383 0.416664C3.83029 0.416664 0.416748 3.79716 0.416748 7.97444C0.416748 12.1517 3.83029 15.5322 8.03383 15.5322C9.60102 15.5322 11.0588 15.0622 12.2704 14.2562L17.2397 19.1845C17.7758 19.7163 18.6437 19.7163 19.1799 19.1845C19.7179 18.6509 19.7179 17.7842 19.1799 17.2506L14.2424 12.3539C15.129 11.1186 15.6509 9.60663 15.6509 7.97444C15.6509 3.79716 12.2374 0.416664 8.03383 0.416664ZM3.16404 7.97444C3.16404 5.31222 5.34106 3.14819 8.03383 3.14819C10.7266 3.14819 12.9036 5.31222 12.9036 7.97444C12.9036 10.6367 10.7266 12.8007 8.03383 12.8007C5.34106 12.8007 3.16404 10.6367 3.16404 7.97444Z" fill="#006FFD"/>
</mask>
<g mask="url(#mask0_377_2382)">
<rect width="20" height="20" fill="#2F3036"/>
</g>
</svg>
