<svg width="55" height="55" viewBox="0 0 55 55" fill="none" xmlns="http://www.w3.org/2000/svg">
<rect width="55" height="55" rx="27.5" fill="#613EEA"/>
<g clip-path="url(#clip0_342_1462)">
<path d="M19.445 31.7975C18.7018 31.7975 17.9754 32.0179 17.3574 32.4308C16.7395 32.8436 16.2579 33.4305 15.9735 34.1171C15.6891 34.8037 15.6147 35.5592 15.7597 36.2881C15.9047 37.0169 16.2626 37.6865 16.788 38.212C17.3135 38.7374 17.9831 39.0953 18.7119 39.2403C19.4408 39.3853 20.1963 39.3109 20.8829 39.0265C21.5695 38.7421 22.1564 38.2605 22.5692 37.6426C22.9821 37.0246 23.2025 36.2982 23.2025 35.555" stroke="white" stroke-width="2" stroke-miterlimit="10"/>
<path d="M23.2025 19.445C23.2025 18.7019 22.9821 17.9754 22.5692 17.3575C22.1564 16.7395 21.5695 16.2579 20.8829 15.9735C20.1963 15.6891 19.4408 15.6147 18.7119 15.7597C17.9831 15.9047 17.3135 16.2626 16.788 16.7881C16.2626 17.3136 15.9047 17.9831 15.7597 18.712C15.6147 19.4408 15.6891 20.1964 15.9735 20.8829C16.2579 21.5695 16.7395 22.1564 17.3574 22.5693C17.9754 22.9821 18.7018 23.2025 19.445 23.2025" stroke="white" stroke-width="2" stroke-miterlimit="10"/>
<path d="M31.7974 35.555C31.7974 36.2982 32.0177 37.0246 32.4306 37.6426C32.8435 38.2605 33.4303 38.7421 34.1169 39.0265C34.8035 39.3109 35.559 39.3853 36.2879 39.2403C37.0168 39.0953 37.6863 38.7374 38.2118 38.212C38.7373 37.6865 39.0952 37.0169 39.2402 36.2881C39.3851 35.5592 39.3107 34.8037 39.0263 34.1171C38.7419 33.4305 38.2603 32.8436 37.6424 32.4308C37.0245 32.0179 36.298 31.7975 35.5549 31.7975" stroke="white" stroke-width="2" stroke-miterlimit="10"/>
<path d="M35.5549 23.2025C36.298 23.2025 37.0245 22.9821 37.6424 22.5693C38.2603 22.1564 38.7419 21.5695 39.0263 20.8829C39.3107 20.1964 39.3851 19.4408 39.2402 18.712C39.0952 17.9831 38.7373 17.3136 38.2118 16.7881C37.6863 16.2626 37.0168 15.9047 36.2879 15.7597C35.559 15.6147 34.8035 15.6891 34.1169 15.9735C33.4303 16.2579 32.8435 16.7395 32.4306 17.3575C32.0177 17.9754 31.7974 18.7019 31.7974 19.445" stroke="white" stroke-width="2" stroke-miterlimit="10"/>
<path d="M36.0948 18.905L30.7173 24.2825" stroke="white" stroke-width="2" stroke-miterlimit="10"/>
<path d="M24.2823 30.7175L18.9048 36.095" stroke="white" stroke-width="2" stroke-miterlimit="10"/>
<path d="M24.2823 24.2825L18.9048 18.905" stroke="white" stroke-width="2" stroke-miterlimit="10"/>
<path d="M36.0948 36.095L30.7173 30.7175" stroke="white" stroke-width="2" stroke-miterlimit="10"/>
<path d="M30.7177 30.7175V24.2825C30.7177 23.86 30.6345 23.4416 30.4728 23.0512C30.3111 22.6608 30.0741 22.3062 29.7753 22.0074C29.4766 21.7086 29.1219 21.4716 28.7315 21.3099C28.3411 21.1482 27.9227 21.065 27.5002 21.065C27.0777 21.065 26.6593 21.1482 26.2689 21.3099C25.8786 21.4716 25.5239 21.7086 25.2251 22.0074C24.9263 22.3062 24.6893 22.6608 24.5276 23.0512C24.3659 23.4416 24.2827 23.86 24.2827 24.2825V30.7175C24.2827 31.14 24.3659 31.5584 24.5276 31.9488C24.6893 32.3391 24.9263 32.6938 25.2251 32.9926C25.5239 33.2914 25.8786 33.5284 26.2689 33.6901C26.6593 33.8518 27.0777 33.935 27.5002 33.935C27.9227 33.935 28.3411 33.8518 28.7315 33.6901C29.1219 33.5284 29.4766 33.2914 29.7753 32.9926C30.0741 32.6938 30.3111 32.3391 30.4728 31.9488C30.6345 31.5584 30.7177 31.14 30.7177 30.7175Z" fill="white" stroke="white" stroke-width="2" stroke-miterlimit="10"/>
</g>
<defs>
<clipPath id="clip0_342_1462">
<rect width="27" height="27" fill="white" transform="matrix(1 0 0 -1 14 41)"/>
</clipPath>
</defs>
</svg>
