<svg width="30" height="31" viewBox="0 0 24 30" fill="none" xmlns="http://www.w3.org/2000/svg">
    <path d="M20 7C20 6.44772 19.5523 6 19 6H6C5.44772 6 5 6.44772 5 7C5 7.55228 5.44772 8 6 8H19C19.5523 8 20 7.55228 20 7Z" fill="#9DB2CE"/>
    <path d="M20 12C20 11.4477 19.5523 11 19 11H6C5.44772 11 5 11.4477 5 12C5 12.5523 5.44772 13 6 13H19C19.5523 13 20 12.5523 20 12Z" fill="#9DB2CE"/>
    <path d="M5 17C5 16.4477 5.44772 16 6 16H14C14.5523 16 15 16.4477 15 17C15 17.5523 14.5523 18 14 18H6C5.44772 18 5 17.5523 5 17Z" fill="#9DB2CE"/>
    <path fill-rule="evenodd" clip-rule="evenodd" d="M17.197 15.4467C15.7325 16.9112 15.7325 19.2855 17.197 20.75C18.3515 21.9045 20.0716 22.1489 21.4655 21.483L23.3841 23.4017L25.1519 21.6339L23.2333 19.7153C23.8991 18.3213 23.6548 16.6013 22.5003 15.4467C21.0358 13.9823 18.6614 13.9823 17.197 15.4467ZM18.9648 18.9823C19.4529 19.4704 20.2444 19.4704 20.7325 18.9823C21.2206 18.494 21.2206 17.7027 20.7325 17.2145C20.2444 16.7263 19.4529 16.7263 18.9648 17.2145C18.4766 17.7027 18.4766 18.494 18.9648 18.9823Z" fill="#9DB2CE"/>
</svg>
